<svg xmlns="http://www.w3.org/2000/svg" fill="none" viewBox="0 51.70552147239263 283.106 92.58895705521472" style="max-height: 500px" width="283.106" height="92.58895705521472">
<path fill="#231F20" d="M23.2336 64.4922C25.9612 65.1977 28.3597 67.408 30.0057 69.5713C32.0279 72.1579 33.2977 75.3088 33.815 78.5537C34.9907 85.3729 33.0625 92.3331 29.7235 98.2587C28.2186 100.892 26.4315 103.291 24.5033 105.595C24.5033 105.548 24.5504 105.548 24.5033 105.595C21.6816 108.934 18.6248 112.085 15.662 115.283C14.1101 116.976 12.5111 118.669 11.0062 120.456C9.54829 122.196 7.99636 124.03 7.10282 126.1C6.16225 128.31 6.39739 130.614 6.16225 132.966C4.32814 131.696 2.63512 130.238 1.55347 128.216C0.189645 125.676 -0.13956 122.76 0.0485542 119.939C0.377753 114.201 2.87026 108.605 5.739 103.761C10.3478 96.0013 17.2139 89.8876 21.2584 81.7987C23.892 76.4375 24.6915 70.3708 23.1866 64.5393L23.2336 64.4922Z"/>
<path fill="#231F20" d="M25.1148 115.612C22.058 120.033 17.5433 123.137 14.3923 127.51C12.6523 129.909 11.1474 132.683 10.6301 135.646C10.3479 137.151 10.3479 138.703 10.8182 140.161C11.2885 141.525 12.182 142.559 13.2637 143.5C13.5929 141.995 13.5929 140.584 14.4864 139.267C15.3799 137.951 16.5557 136.869 17.7314 135.881C20.3179 133.577 23.1867 131.32 25.6321 129.062C26.9019 127.887 28.1246 126.617 29.1593 125.206C31.4637 122.102 33.0156 118.293 32.8745 114.342C32.8275 112.367 32.3102 110.392 31.2756 108.652C30.4761 107.288 29.2533 105.877 27.7484 105.313C28.2657 109.028 27.1841 112.602 25.0678 115.659L25.1148 115.612Z"/>
<path fill="#231F20" d="M11.2885 64.5863C9.12519 70.2297 4.98668 74.8385 2.77634 80.4349C1.50657 83.5388 0.613044 86.9718 0.848186 90.3579C0.942243 92.0509 1.3655 93.791 2.25904 95.2488C3.15258 96.6127 4.42234 97.5062 5.83319 98.2587C5.78616 96.5656 5.40995 94.9667 6.02132 93.2737C6.63269 91.6277 7.6673 90.1227 8.6549 88.6649C10.8652 85.4669 13.4048 82.222 15.474 79.0711C16.5557 77.4251 17.5433 75.732 18.2957 73.8979C19.9888 69.8535 20.6472 65.2917 19.4714 61.0121C18.8601 58.8488 17.7784 56.8266 16.1794 55.2276C14.9567 53.9579 13.2167 52.7351 11.4296 52.5C12.9815 56.4034 12.7934 60.6359 11.2885 64.5393V64.5863Z"/>
<path fill="#231F20" d="M49.2376 110.426L52.8317 105.15C54.5905 106.374 56.3494 107.368 58.1847 108.209C60.02 109.05 61.9317 109.509 63.92 109.509C65.9082 109.509 65.9082 109.356 66.7494 109.126C67.5906 108.897 68.2788 108.515 68.8141 108.056C69.3494 107.597 69.8082 107.138 70.1141 106.603C70.42 106.068 70.5729 105.532 70.5729 104.997C70.5729 104.462 70.3435 103.697 69.9611 103.238C69.5788 102.779 68.967 102.321 68.2788 102.015C67.5906 101.709 66.7494 101.403 65.7553 101.25C64.7611 101.021 63.767 100.791 62.7729 100.638C62.0847 100.485 61.2435 100.332 60.4023 100.179C59.5611 100.026 58.567 99.7971 57.5729 99.4912C56.5788 99.1853 55.6611 98.8029 54.667 98.3441C53.7494 97.8853 52.9082 97.2735 52.1435 96.5088C51.3788 95.7441 50.767 94.9029 50.3082 93.9088C49.8494 92.9147 49.62 91.6912 49.62 90.3147C49.62 88.3265 50.0023 86.6441 50.8435 85.2676C51.6847 83.8912 52.6788 82.897 53.9788 82.1323C55.2788 81.3676 56.6553 80.8323 58.1847 80.5264C59.7141 80.2206 61.2435 80.0676 62.6964 80.0676C64.1494 80.0676 65.4494 80.1441 66.5964 80.3735C67.7435 80.6029 68.8141 80.8323 69.7317 81.2147C70.7258 81.5971 71.6435 82.0559 72.5611 82.5912C73.4788 83.1265 74.4729 83.8147 75.5435 84.5794L71.8729 89.7794C70.267 88.6323 68.6611 87.7912 67.1317 87.1794C65.6023 86.5676 64.0729 86.2617 62.3906 86.2617C60.7082 86.2617 61.167 86.2618 60.4788 86.4912C59.7906 86.6441 59.1023 86.8735 58.4141 87.1794C57.8023 87.4853 57.267 87.8676 56.8082 88.4029C56.3494 88.8618 56.1964 89.4735 56.1964 90.1617C56.1964 90.85 56.4258 91.4618 56.9611 91.9206C57.4964 92.3794 58.1082 92.7618 58.8729 93.0676C59.6376 93.3735 60.5553 93.6794 61.4729 93.8324C62.3906 94.0618 63.3082 94.2912 64.2258 94.5206C64.9141 94.6735 65.6788 94.8265 66.52 94.9794C67.4376 95.1324 68.3553 95.3618 69.2729 95.6676C70.1906 95.9735 71.1847 96.3559 72.1023 96.8147C73.02 97.2735 73.8611 97.8853 74.6259 98.65C75.3906 99.4147 75.9259 100.332 76.3847 101.403C76.8435 102.474 77.0729 103.774 77.0729 105.303C77.0729 106.832 76.767 108.668 76.1553 109.968C75.5435 111.268 74.6259 112.415 73.4788 113.256C72.3317 114.097 70.9553 114.785 69.3494 115.244C67.7435 115.703 65.9847 115.932 63.9964 115.932C62.0082 115.932 60.6317 115.779 59.2553 115.55C57.8788 115.321 56.6553 114.938 55.5082 114.479C54.3611 114.021 53.2906 113.485 52.2964 112.874C51.3023 112.262 50.2317 111.574 49.1611 110.809L49.2376 110.426Z"/>
<path fill="#231F20" d="M114.161 106.526C113.396 107.903 112.478 109.127 111.408 110.274C110.337 111.421 109.114 112.338 107.737 113.179C106.437 113.944 104.984 114.632 103.378 115.015C101.849 115.474 100.243 115.703 98.5608 115.703C96.1138 115.703 93.8196 115.244 91.602 114.326C89.4608 113.409 87.5491 112.109 85.9432 110.503C84.3373 108.897 83.0373 106.985 82.1196 104.844C81.202 102.703 80.7432 100.332 80.7432 97.8853C80.7432 95.4383 81.202 93.1441 82.1196 90.9265C83.0373 88.7853 84.3373 86.8735 85.9432 85.2677C87.5491 83.6618 89.4608 82.3618 91.602 81.4441C93.7432 80.5265 96.1138 80.0677 98.5608 80.0677C101.008 80.0677 101.849 80.2971 103.378 80.7559C104.908 81.2147 106.361 81.8265 107.737 82.5912C109.114 83.3559 110.261 84.35 111.408 85.4971C112.478 86.6441 113.396 87.8677 114.161 89.1677L107.967 91.6912C107.431 90.9265 106.896 90.2383 106.208 89.55C105.52 88.8618 104.755 88.3265 103.99 87.7912C103.226 87.2559 102.308 86.8735 101.39 86.6441C100.473 86.3382 99.5549 86.1853 98.5608 86.1853C96.9549 86.1853 95.502 86.4912 94.1255 87.1794C92.7491 87.7912 91.602 88.7088 90.5314 89.7794C89.5373 90.85 88.6961 92.0735 88.1608 93.5265C87.549 94.9794 87.2432 96.4324 87.2432 97.9618C87.2432 99.4912 87.549 101.021 88.1608 102.474C88.7726 103.85 89.5373 105.15 90.5314 106.221C91.5255 107.291 92.7491 108.132 94.1255 108.821C95.502 109.432 96.9549 109.815 98.5608 109.815C100.167 109.815 100.473 109.662 101.39 109.356C102.308 109.05 103.149 108.668 103.99 108.209C104.831 107.674 105.52 107.138 106.208 106.45C106.896 105.762 107.508 105.074 107.967 104.309L114.161 106.832V106.526Z"/>
<path fill="#231F20" d="M125.861 86.3383V94.9795H142.531V100.944H125.861V109.05H144.672V115.015H119.284V80.5265H144.672V86.3383H125.861Z"/>
<path fill="#231F20" d="M180.69 115.015L158.055 94.5205V115.015H151.479V80.6028H152.167L174.802 101.403V80.6028H181.379V115.015H180.69Z"/>
<path fill="#231F20" d="M212.273 86.3383H202.408V115.015H195.832V86.3383H185.967V80.5265H212.273V86.3383Z"/>
<path fill="#231F20" d="M223.361 115.015H216.784V80.5265H232.461C234.219 80.5265 235.825 80.8324 237.278 81.3677C238.731 81.9794 239.955 82.7442 241.025 83.8147C242.096 84.8853 242.861 86.1089 243.472 87.5618C244.084 89.0147 244.314 90.6206 244.314 92.303C244.314 94.903 243.625 97.1971 242.325 99.1089C241.025 101.021 239.267 102.474 237.125 103.315C240.031 107.138 242.861 111.038 245.69 114.938H237.814C236.437 113.179 235.061 111.344 233.761 109.509C232.461 107.674 231.161 105.838 229.784 103.927H223.284V114.938L223.361 115.015ZM223.361 98.1912H232.384C232.996 98.1912 233.608 98.1147 234.219 97.8089C234.831 97.5795 235.443 97.1971 235.902 96.7383C236.361 96.2795 236.819 95.6677 237.125 94.903C237.431 94.2148 237.584 93.2971 237.584 92.3794C237.584 91.4618 237.584 91.3089 237.431 90.6206C237.278 89.9324 237.049 89.2442 236.667 88.6324C236.284 88.0206 235.749 87.4853 235.061 87.0265C234.372 86.5677 233.455 86.3383 232.308 86.3383H223.284V98.1912H223.361Z"/>
<path fill="#231F20" d="M246.685 115.015L264.273 80.6028H264.961L282.55 115.015H275.361L272.685 109.585H256.397L253.797 115.015H246.608H246.685ZM259.685 103.85H269.55L264.655 93.4499L259.685 103.85Z"/>
</svg>