<svg xmlns="http://www.w3.org/2000/svg" fill="none" viewBox="0 0 283 92.86746987951807" style="max-height: 500px" width="283" height="92.86746987951807">
<path fill="#231F20" d="M49.2386 57.9264L52.8327 52.65C54.5915 53.8735 56.3503 54.8676 58.1856 55.7088C60.0209 56.55 61.9327 57.0088 63.9209 57.0088C65.9092 57.0088 65.9092 56.8559 66.7504 56.6265C67.5915 56.3971 68.2798 56.0147 68.8151 55.5559C69.3504 55.097 69.8092 54.6382 70.1151 54.1029C70.4209 53.5676 70.5739 53.0323 70.5739 52.497C70.5739 51.9617 70.3445 51.197 69.9621 50.7382C69.5798 50.2794 68.968 49.8206 68.2798 49.5147C67.5915 49.2088 66.7503 48.9029 65.7562 48.75C64.7621 48.5206 63.768 48.2912 62.7739 48.1382C62.0856 47.9853 61.2445 47.8323 60.4033 47.6794C59.5621 47.5264 58.568 47.297 57.5739 46.9912C56.5798 46.6853 55.6621 46.3029 54.668 45.8441C53.7503 45.3853 52.9092 44.7735 52.1445 44.0088C51.3798 43.2441 50.768 42.4029 50.3092 41.4088C49.8503 40.4147 49.6209 39.1912 49.6209 37.8147C49.6209 35.8264 50.0033 34.1441 50.8445 32.7676C51.6856 31.3911 52.6798 30.397 53.9798 29.6323C55.2798 28.8676 56.6562 28.3323 58.1856 28.0264C59.7151 27.7205 61.2445 27.5676 62.6974 27.5676C64.1503 27.5676 65.4504 27.6441 66.5974 27.8735C67.7445 28.1029 68.8151 28.3323 69.7327 28.7147C70.7268 29.097 71.6445 29.5559 72.5621 30.0911C73.4798 30.6264 74.4739 31.3147 75.5445 32.0794L71.8739 37.2794C70.268 36.1323 68.6621 35.2912 67.1327 34.6794C65.6033 34.0676 64.0739 33.7617 62.3915 33.7617C60.7092 33.7617 61.168 33.7617 60.4798 33.9912C59.7915 34.1441 59.1033 34.3735 58.4151 34.6794C57.8033 34.9853 57.268 35.3676 56.8092 35.9029C56.3503 36.3617 56.1974 36.9735 56.1974 37.6617C56.1974 38.35 56.4268 38.9617 56.9621 39.4206C57.4974 39.8794 58.1092 40.2617 58.8739 40.5676C59.6386 40.8735 60.5562 41.1794 61.4739 41.3323C62.3915 41.5618 63.3092 41.7912 64.2268 42.0206C64.9151 42.1735 65.6798 42.3265 66.5209 42.4794C67.4386 42.6323 68.3562 42.8617 69.2739 43.1676C70.1915 43.4735 71.1856 43.8559 72.1033 44.3147C73.0209 44.7735 73.8621 45.3853 74.6268 46.15C75.3915 46.9147 75.9268 47.8323 76.3857 48.9029C76.8445 49.9735 77.0739 51.2735 77.0739 52.8029C77.0739 54.3323 76.768 56.1676 76.1562 57.4676C75.5445 58.7676 74.6268 59.9147 73.4798 60.7559C72.3327 61.597 70.9562 62.2853 69.3503 62.7441C67.7445 63.2029 65.9856 63.4323 63.9974 63.4323C62.0092 63.4323 60.6327 63.2794 59.2562 63.05C57.8798 62.8206 56.6562 62.4382 55.5092 61.9794C54.3621 61.5206 53.2915 60.9853 52.2974 60.3735C51.3033 59.7618 50.2327 59.0735 49.1621 58.3088L49.2386 57.9264Z"/>
<path fill="#231F20" d="M114.162 54.0264C113.397 55.4029 112.479 56.6265 111.409 57.7735C110.338 58.9206 109.115 59.8382 107.738 60.6794C106.438 61.4441 104.985 62.1323 103.379 62.5147C101.85 62.9735 100.244 63.2029 98.5618 63.2029C96.1147 63.2029 93.8206 62.7441 91.603 61.8265C89.4618 60.9088 87.55 59.6088 85.9441 58.0029C84.3383 56.397 83.0383 54.4853 82.1206 52.3441C81.203 50.2029 80.7441 47.8323 80.7441 45.3853C80.7441 42.9382 81.203 40.6441 82.1206 38.4264C83.0383 36.2853 84.3383 34.3735 85.9441 32.7676C87.55 31.1617 89.4618 29.8617 91.603 28.9441C93.7441 28.0264 96.1147 27.5676 98.5618 27.5676C101.009 27.5676 101.85 27.797 103.379 28.2559C104.909 28.7147 106.362 29.3264 107.738 30.0911C109.115 30.8559 110.262 31.85 111.409 32.997C112.479 34.1441 113.397 35.3676 114.162 36.6676L107.968 39.1911C107.432 38.4264 106.897 37.7382 106.209 37.05C105.521 36.3617 104.756 35.8264 103.991 35.2911C103.226 34.7558 102.309 34.3735 101.391 34.1441C100.474 33.8382 99.5559 33.6853 98.5618 33.6853C96.9559 33.6853 95.503 33.9911 94.1265 34.6794C92.75 35.2911 91.603 36.2088 90.5324 37.2794C89.5383 38.35 88.6971 39.5735 88.1618 41.0264C87.55 42.4794 87.2441 43.9323 87.2441 45.4617C87.2441 46.9912 87.55 48.5206 88.1618 49.9735C88.7736 51.35 89.5383 52.65 90.5324 53.7206C91.5265 54.7912 92.75 55.6323 94.1265 56.3206C95.503 56.9323 96.9559 57.3147 98.5618 57.3147C100.168 57.3147 100.474 57.1617 101.391 56.8559C102.309 56.55 103.15 56.1676 103.991 55.7088C104.832 55.1735 105.521 54.6382 106.209 53.95C106.897 53.2618 107.509 52.5735 107.968 51.8088L114.162 54.3323V54.0264Z"/>
<path fill="#231F20" d="M125.862 33.8383V42.4795H142.532V48.4442H125.862V56.55H144.673V62.5147H119.285V28.0265H144.673V33.8383H125.862Z"/>
<path fill="#231F20" d="M180.691 62.5146L158.056 42.0204V62.5146H151.479V28.1028H152.168L174.803 48.9028V28.1028H181.38V62.5146H180.691Z"/>
<path fill="#231F20" d="M212.274 33.8383H202.409V62.5147H195.832V33.8383H185.968V28.0265H212.274V33.8383Z"/>
<path fill="#231F20" d="M223.362 62.5147H216.785V28.0265H232.462C234.22 28.0265 235.826 28.3324 237.279 28.8677C238.732 29.4794 239.956 30.2442 241.026 31.3147C242.097 32.3853 242.862 33.6089 243.473 35.0618C244.085 36.5147 244.315 38.1206 244.315 39.803C244.315 42.403 243.626 44.6971 242.326 46.6089C241.026 48.5206 239.267 49.9736 237.126 50.8147C240.032 54.6383 242.862 58.5383 245.691 62.4383H237.815C236.438 60.6794 235.062 58.8442 233.762 57.0089C232.462 55.1736 231.162 53.3383 229.785 51.4265H223.285V62.4383L223.362 62.5147ZM223.362 45.6912H232.385C232.997 45.6912 233.609 45.6147 234.22 45.3089C234.832 45.0794 235.444 44.6971 235.903 44.2383C236.362 43.7794 236.82 43.1677 237.126 42.403C237.432 41.7147 237.585 40.7971 237.585 39.8794C237.585 38.9618 237.585 38.8089 237.432 38.1206C237.279 37.4324 237.05 36.7441 236.668 36.1324C236.285 35.5206 235.75 34.9853 235.062 34.5265C234.373 34.0677 233.456 33.8383 232.309 33.8383H223.285V45.6912H223.362Z"/>
<path fill="#231F20" d="M246.686 62.5146L264.274 28.1028H264.962L282.551 62.5146H275.362L272.686 57.0851H256.398L253.798 62.5146H246.609H246.686ZM259.686 51.3498H269.551L264.656 40.9499L259.686 51.3498Z"/>
<g filter="url(#filter0_d_346_23)">
<path fill="#404040" d="M214 75C214 70.0294 218.029 66 223 66H271C275.971 66 280 70.0294 280 75V81C280 85.9706 275.971 90 271 90H223C218.029 90 214 85.9706 214 81V75Z"/>
</g>
<path fill="#231F20" d="M23.2336 11.9922C25.9612 12.6977 28.3597 14.908 30.0057 17.0713C32.0279 19.6579 33.2977 22.8088 33.815 26.0537C34.9907 32.8729 33.0625 39.8331 29.7235 45.7587C28.2186 48.3923 26.4315 50.7907 24.5033 53.0951C24.5504 53.0481 24.5033 53.0481 24.5033 53.0951C21.6816 56.4341 18.6248 59.585 15.662 62.783C14.1101 64.476 12.5111 66.169 11.0062 67.9561C9.54829 69.6961 7.99636 71.5303 7.10282 73.5995C6.16225 75.8098 6.39739 78.1142 6.16225 80.4657C4.32814 79.1959 2.63512 77.738 1.55347 75.7158C0.189645 73.1763 -0.13956 70.2605 0.0485542 67.4388C0.377753 61.7013 2.87026 56.1049 5.739 51.261C10.3478 43.5013 17.2139 37.3876 21.2584 29.2987C23.892 23.9375 24.6915 17.8708 23.1866 12.0393L23.2336 11.9922Z"/>
<path fill="#231F20" d="M25.1148 63.1121C22.058 67.5328 17.5433 70.6367 14.3923 75.0103C12.6523 77.4087 11.1474 80.1834 10.6301 83.1462C10.3479 84.6511 10.3479 86.2031 10.8182 87.6609C11.2885 89.0248 12.182 90.0594 13.2637 91C13.5929 89.4951 13.5929 88.0842 14.4864 86.7674C15.3799 85.4506 16.5557 84.369 17.7314 83.3814C20.3179 81.077 23.1867 78.8196 25.6321 76.5622C26.9019 75.3865 28.1246 74.1167 29.1593 72.7059C31.4637 69.602 33.0156 65.7927 32.8745 61.8423C32.8275 59.8671 32.3102 57.8919 31.2756 56.1519C30.4761 54.788 29.2533 53.3772 27.7484 52.8129C28.2657 56.5281 27.1841 60.1023 25.0678 63.1591L25.1148 63.1121Z"/>
<path fill="#231F20" d="M11.2885 12.0863C9.12518 17.7297 4.98668 22.3385 2.77634 27.9349C1.50657 31.0388 0.613044 34.4718 0.848186 37.8579C0.942243 39.5509 1.3655 41.291 2.25904 42.7488C3.15258 44.1127 4.42234 45.0062 5.83319 45.7587C5.78616 44.0656 5.40995 42.4667 6.02132 40.7737C6.63269 39.1277 7.6673 37.6227 8.6549 36.1649C10.8652 32.9669 13.4048 29.722 15.474 26.5711C16.5557 24.9251 17.5433 23.232 18.2957 21.3979C19.9888 17.3535 20.6472 12.7917 19.4714 8.51214C18.8601 6.34883 17.7784 4.32661 16.1794 2.72764C14.9567 1.45788 13.2167 0.235142 11.4296 0C12.9815 3.90336 12.7934 8.13591 11.2885 12.0393V12.0863Z"/>
<path fill="white" d="M233.719 84H230.023V73.0859H232.883C233.784 73.0859 234.487 73.2083 234.992 73.4531C235.497 73.6927 235.883 74.026 236.148 74.4531C236.414 74.875 236.547 75.3646 236.547 75.9219C236.547 76.9948 235.992 77.763 234.883 78.2266C235.68 78.3776 236.312 78.7057 236.781 79.2109C237.255 79.7161 237.492 80.3203 237.492 81.0234C237.492 81.5807 237.349 82.0781 237.062 82.5156C236.776 82.9531 236.354 83.3099 235.797 83.5859C235.245 83.862 234.552 84 233.719 84ZM232.93 74.4766H231.586V77.7578H232.625C233.458 77.7578 234.049 77.599 234.398 77.2812C234.753 76.9635 234.93 76.5521 234.93 76.0469C234.93 75 234.263 74.4766 232.93 74.4766ZM233.047 79.1484H231.586V82.6094H233.125C233.979 82.6094 234.557 82.5443 234.859 82.4141C235.167 82.2786 235.411 82.0703 235.594 81.7891C235.781 81.5078 235.875 81.2057 235.875 80.8828C235.875 80.5495 235.776 80.2448 235.578 79.9688C235.385 79.6927 235.109 79.487 234.75 79.3516C234.391 79.2161 233.823 79.1484 233.047 79.1484ZM239.039 73.0859H245.227V74.4766H240.602V77.8047H245.07V79.2031H240.602V82.5938H245.375V83.9844H239.039V73.0859ZM246.109 73.0703H255.227V74.4609H251.422V84H249.852V74.4609H246.109V73.0703ZM260.195 73.0234H261.297L266.18 84H264.578L263.125 80.7656H258.484L257.109 84H255.508L260.195 73.0234ZM262.484 79.375L260.727 75.4219L259.094 79.375H262.484Z"/>
<defs>
<filter color-interpolation-filters="sRGB" filterUnits="userSpaceOnUse" height="28" width="70" y="66" x="212" id="filter0_d_346_23">
<feFlood result="BackgroundImageFix" flood-opacity="0"/>
<feColorMatrix result="hardAlpha" values="0 0 0 0 0 0 0 0 0 0 0 0 0 0 0 0 0 0 127 0" type="matrix" in="SourceAlpha"/>
<feOffset dy="2"/>
<feGaussianBlur stdDeviation="1"/>
<feComposite operator="out" in2="hardAlpha"/>
<feColorMatrix values="0 0 0 0 0 0 0 0 0 0 0 0 0 0 0 0 0 0 0.25 0" type="matrix"/>
<feBlend result="effect1_dropShadow_346_23" in2="BackgroundImageFix" mode="normal"/>
<feBlend result="shape" in2="effect1_dropShadow_346_23" in="SourceGraphic" mode="normal"/>
</filter>
</defs>
</svg>